<?xml version="1.0" encoding="utf-8"?>
<svg width="175px" height="40px" viewBox="0 0 175 40" version="1.1" xmlns:xlink="http://www.w3.org/1999/xlink" xmlns="http://www.w3.org/2000/svg">
  <defs>
    <linearGradient gradientUnits="objectBoundingBox" x1="1" y1="0.5" x2="0.10225023" y2="0.5" id="gradient_1">
      <stop offset="0%" stop-color="#DFF600" />
      <stop offset="100%" stop-color="#017EE2" />
    </linearGradient>
    <path d="M268.5 449L336 449C342.488 449 345.732 449 347.826 449.773Q349.098 450.242 350.239 450.972Q351.381 451.703 352.339 452.661Q353.297 453.619 354.028 454.761Q354.758 455.902 355.227 457.174C356 459.268 356 462.512 356 469L356 469C356 475.488 356 478.732 355.227 480.826Q354.758 482.098 354.028 483.239Q353.297 484.381 352.339 485.339Q351.381 486.297 350.239 487.028Q349.098 487.758 347.826 488.227C345.732 489 342.488 489 336 489L201 489C194.512 489 191.268 489 189.174 488.227Q187.902 487.758 186.761 487.028Q185.619 486.297 184.661 485.339Q183.703 484.381 182.972 483.239Q182.242 482.098 181.773 480.826C181 478.732 181 475.488 181 469L181 469C181 462.512 181 459.268 181.773 457.174Q182.242 455.902 182.972 454.761Q183.703 453.619 184.661 452.661Q185.619 451.703 186.761 450.972Q187.902 450.242 189.174 449.773C191.268 449 194.512 449 201 449L268.5 449Z" id="path_1" />
    <clipPath id="clip_1">
      <use xlink:href="#path_1" />
    </clipPath>
  </defs>
  <g id="Rectangle">
    <g clip-path="url(#clip_1)">
      <use xlink:href="#path_1" fill="none" stroke="url(#gradient_1)" stroke-width="2" />
    </g>
  </g>
</svg>